# xmcd
#
# Track frame offsets: 
#        150
#        13738
#        27660
#        39815
#        50752
#        63849
#        77118
#        88116
#        100883
#        112183
#        125001
#        137833
#        147515
#        161495
#        175489
#        190229
#        203293
#        216515
#        227702
#        240564
#        251969
#        264403
#        277973
#
# Disc length: 3832 seconds
#
# Revision: 1
# Processed by: cddbd v1.5.2PL0 Copyright (c) Steve Scherf et al.
# Submitted via: ExactAudioCopy v0.99pb5
#
DISCID=560ef617
DTITLE=Billie Holiday - Complete Columbia Golden Years Recordings Vol.
DTITLE=3a
DYEAR=1938
DGENRE=Jazz
TTITLE0=Now They Call It Swing
TTITLE1=On the Sentimental Side
TTITLE2=Back In Your Own Backyard
TTITLE3=When A Woman Loves A Man
TTITLE4=You Go to My Head
TTITLE5=The Moon Looks Down and Laughs
TTITLE6=If I Were You
TTITLE7=Forget If You Can
TTITLE8=Havin' Myself A Time
TTITLE9=Says My Heart
TTITLE10=I Wish I Had You
TTITLE11=I'm Gona Lock My Heart
TTITLE12=Now They Call It Swing (alt)
TTITLE13=On the Sentimental Side (alt)
TTITLE14=Back In Your Own Backyard (alt)
TTITLE15=You Go to My Head (alt)
TTITLE16=The Moon Looks Down and Laughs (alt)
TTITLE17=If I Were You (alt)
TTITLE18=Forget If You Can (alt)
TTITLE19=Havin' Myself A Time (alt)
TTITLE20=Says My Heart (alt)
TTITLE21=I Wish I Had You (alt)
TTITLE22=I'm Gona Lock My Heart (alt)
EXTD=YEAR: 1938
EXTT0=
EXTT1=
EXTT2=
EXTT3=
EXTT4=
EXTT5=
EXTT6=
EXTT7=
EXTT8=
EXTT9=
EXTT10=
EXTT11=
EXTT12=
EXTT13=
EXTT14=
EXTT15=
EXTT16=
EXTT17=
EXTT18=
EXTT19=
EXTT20=
EXTT21=
EXTT22=
PLAYORDER=
